<svg width="15" height="15" viewBox="0 0 15 15" fill="none" xmlns="http://www.w3.org/2000/svg">
<g clip-path="url(#clip0_1798_4210)">
<path d="M7.48865 14.3147C11.3278 14.3147 14.44 11.2025 14.44 7.36341C14.44 3.52431 11.3278 0.412109 7.48865 0.412109C3.64956 0.412109 0.537354 3.52431 0.537354 7.36341C0.537354 11.2025 3.64956 14.3147 7.48865 14.3147Z" fill="#8CF25E"/>
<path d="M7.49137 12.4197C10.3233 12.4197 12.619 10.124 12.619 7.29215C12.619 4.46026 10.3233 2.16455 7.49137 2.16455C4.65947 2.16455 2.36377 4.46026 2.36377 7.29215C2.36377 10.124 4.65947 12.4197 7.49137 12.4197Z" fill="#68D946"/>
<path d="M5.39468 8.57206C5.30738 8.34876 4.95788 7.38206 5.41608 6.40516C5.86688 5.44396 6.79898 5.11166 7.32608 4.92516C8.50828 4.50576 9.56758 4.74516 10.0293 4.88226C10.0993 5.76036 9.95928 6.44956 9.83628 6.87756C9.69918 7.35526 9.56828 7.81166 9.17118 8.27206C9.06418 8.39616 8.58118 8.93386 7.73368 9.17316C7.22233 9.31619 6.68256 9.3236 6.16748 9.19466L5.45948 10.0747C5.35948 10.1799 5.20518 10.2033 5.09478 10.1391C4.99478 10.0808 4.94118 9.95656 4.96118 9.83366C4.96836 9.78956 4.98463 9.74743 5.00898 9.70996C6.00198 8.22566 6.72488 7.54226 6.72488 7.54226C7.06748 7.21836 7.33488 6.98526 7.58298 6.76986C8.08688 6.33216 8.51888 5.98306 8.82738 5.73986C7.45346 6.36469 6.2692 7.34172 5.39468 8.57186V8.57206Z" fill="#51C430"/>
<path d="M5.3732 8.29329C5.2859 8.06999 4.9365 7.10329 5.3947 6.12639C5.8454 5.16519 6.7776 4.83289 7.3041 4.64639C8.4863 4.22689 9.5457 4.46639 10.0074 4.60349C10.0774 5.48159 9.9374 6.17079 9.8143 6.59879C9.6772 7.07649 9.5463 7.53289 9.1492 7.99329C9.0422 8.11739 8.5592 8.65509 7.7118 8.89439C7.20046 9.03743 6.66068 9.04484 6.1456 8.91589L5.4376 9.79589C5.3376 9.90109 5.1833 9.92449 5.0729 9.86029C4.9729 9.80199 4.9192 9.67779 4.9392 9.55489C4.94623 9.51041 4.96251 9.46789 4.987 9.43009C5.9806 7.94659 6.7034 7.26319 6.7034 7.26319C7.046 6.93929 7.3134 6.70619 7.5616 6.49079C8.0654 6.05309 8.4974 5.70399 8.8059 5.46079C8.30893 5.68689 7.83477 5.96007 7.3899 6.27659C6.61055 6.83242 5.92902 7.51394 5.3732 8.29329Z" fill="#86ED5B"/>
<path d="M2.76068 7.27547C2.76068 4.65387 4.88588 2.52867 7.50748 2.52867C10.1291 2.52867 12.2543 4.65387 12.2543 7.27547C12.2543 7.28087 12.2543 7.28617 12.2543 7.29157H12.6943C12.6914 4.41767 10.3608 2.08887 7.48628 2.08887C4.61178 2.08887 2.28098 4.41767 2.27808 7.29157H2.76088C2.76088 7.28617 2.76068 7.28087 2.76068 7.27547Z" fill="#50C631"/>
<path d="M12.2541 7.29199C12.2454 9.90619 10.1241 12.0227 7.50748 12.0227C4.89088 12.0227 2.76998 9.90619 2.76088 7.29199H2.27808C2.27808 7.29379 2.27808 7.29559 2.27808 7.29739C2.27808 10.1737 4.60978 12.5055 7.48618 12.5055C10.3626 12.5055 12.6942 10.1737 12.6942 7.29739V7.29199H12.2541Z" fill="#A2FF73"/>
<path d="M13.7811 7.39201C13.7811 10.883 10.9511 13.7129 7.46021 13.7129C3.96931 13.7129 1.13931 10.8829 1.13931 7.39201C1.13931 7.38481 1.13931 7.37771 1.13931 7.37061H0.553711C0.557511 11.1975 3.66101 14.2986 7.48871 14.2986C11.3164 14.2986 14.42 11.1975 14.4238 7.37061H13.7808C13.7809 7.37771 13.7811 7.38481 13.7811 7.39201Z" fill="#53BF38"/>
<path d="M1.13987 7.37052C1.15097 3.88942 3.97627 1.07102 7.45987 1.07102C10.9435 1.07102 13.769 3.88942 13.7805 7.37052H14.4235C14.4235 7.36812 14.4235 7.36572 14.4235 7.36332C14.4235 3.53332 11.3185 0.428223 7.48827 0.428223C3.65807 0.428223 0.553467 3.53322 0.553467 7.36332C0.553467 7.36572 0.553467 7.36812 0.553467 7.37052H1.13987Z" fill="#80E65B"/>
</g>
<defs>
<clipPath id="clip0_1798_4210">
<rect width="15" height="15" fill="white"/>
</clipPath>
</defs>
</svg>
