<svg xmlns="http://www.w3.org/2000/svg" viewBox="0 0 1500 464.43"><defs><style>.cls-1{fill:#31a74f;}.cls-2{fill:#247234;}</style></defs><g id="Layer_2" data-name="Layer 2"><path class="cls-1" d="M233.52,353.64q-33.06,0-57.52-14.7t-38-41.32q-13.56-26.61-13.56-62,0-35.7,13.89-63a103.34,103.34,0,0,1,40-42.81q26.12-15.53,62.48-15.53,40.65,0,67.6,19.5T343.26,188H293.35a44.25,44.25,0,0,0-18.35-24q-13.38-8.74-34.54-8.76-22.49,0-38.35,9.92A63.25,63.25,0,0,0,178,193q-8.26,17.85-8.26,42.64,0,25.13,8.26,42.64t23.64,26.61Q217,314,237.81,314q30.42,0,46.12-16.36t18.67-42.48H245.75V221.75H347.56V349.68H306.24l-3.31-29.42a75.59,75.59,0,0,1-17,18.35,69.29,69.29,0,0,1-22.64,11.23Q250.37,353.65,233.52,353.64Z"/><path class="cls-1" d="M388.22,349.68V183.08h39.66l4.3,30.74a63.56,63.56,0,0,1,15-18.51,69.31,69.31,0,0,1,20.83-11.9,75,75,0,0,1,25.94-4.3v47.27h-15.2a69.27,69.27,0,0,0-18.35,2.32,39.54,39.54,0,0,0-14.71,7.43,31.92,31.92,0,0,0-9.58,14.05q-3.31,8.93-3.31,22.48v77Z"/><path class="cls-1" d="M600.76,353.64q-25.12,0-44.46-10.74a76,76,0,0,1-30.08-30.08Q515.48,293.49,515.48,268q0-26.1,10.58-46.11A78.16,78.16,0,0,1,556,190.52q19.34-11.42,44.79-11.41,24.79,0,43.31,10.91a76.84,76.84,0,0,1,28.75,29.42q10.24,18.52,10.25,42v7.44a55.39,55.39,0,0,1-.66,8.43H547.21V250.18h90.9q-1-16.19-11.4-25.45t-26-9.26a43.43,43.43,0,0,0-20.82,5.13,35.75,35.75,0,0,0-15,15.7q-5.46,10.57-5.46,26.77v9.59q0,13.56,5.13,23.63A36.93,36.93,0,0,0,579,311.83a41.45,41.45,0,0,0,21.48,5.45q12.23,0,20.33-5.28a33.22,33.22,0,0,0,12.07-13.56h45.61a75.22,75.22,0,0,1-15.53,28.1,77.86,77.86,0,0,1-26.78,19.83A83.89,83.89,0,0,1,600.76,353.64Z"/><path class="cls-1" d="M799.75,353.64q-25.12,0-44.46-10.74a76,76,0,0,1-30.08-30.08Q714.47,293.49,714.47,268q0-26.1,10.58-46.11A78.16,78.16,0,0,1,755,190.52q19.34-11.42,44.79-11.41,24.79,0,43.3,10.91a76.79,76.79,0,0,1,28.76,29.42q10.25,18.52,10.25,42v7.44a55.39,55.39,0,0,1-.66,8.43H746.2V250.18h90.9q-1-16.19-11.4-25.45t-26-9.26a43.43,43.43,0,0,0-20.82,5.13,35.75,35.75,0,0,0-15,15.7q-5.46,10.57-5.46,26.77v9.59q0,13.56,5.13,23.63a37,37,0,0,0,14.37,15.54,41.51,41.51,0,0,0,21.49,5.45q12.23,0,20.33-5.28a33.12,33.12,0,0,0,12.06-13.56h45.62a75.22,75.22,0,0,1-15.53,28.1,77.86,77.86,0,0,1-26.78,19.83A83.89,83.89,0,0,1,799.75,353.64Z"/><path class="cls-1" d="M918.75,349.68V183.08h39.33l3.31,27.11A59.58,59.58,0,0,1,983,187.71q14-8.6,33.55-8.6,20.82,0,35,8.6t21.65,25.12q7.44,16.53,7.44,40.66v96.19h-44.3v-91.9q0-19.83-8.42-30.41t-26-10.57a37.85,37.85,0,0,0-20,5.29,36.34,36.34,0,0,0-13.72,15q-5,9.75-5,23.63v88.92Z"/><path class="cls-1" d="M1123.68,183.08v166.6h44.63V183.08Z"/><path class="cls-1" d="M1293.26,353.64q-25.12,0-44.46-10.74a76,76,0,0,1-30.08-30.08Q1208,293.49,1208,268q0-26.1,10.58-46.11a78.18,78.18,0,0,1,29.92-31.4q19.33-11.42,44.79-11.41,24.78,0,43.3,10.91a76.79,76.79,0,0,1,28.76,29.42q10.25,18.52,10.25,42v7.44a55.42,55.42,0,0,1-.67,8.43H1239.71V250.18h90.9q-1-16.19-11.4-25.45t-26-9.26a43.44,43.44,0,0,0-20.83,5.13,35.86,35.86,0,0,0-15,15.7q-5.45,10.57-5.45,26.77v9.59q0,13.56,5.12,23.63a37.06,37.06,0,0,0,14.38,15.54,41.49,41.49,0,0,0,21.49,5.45q12.22,0,20.33-5.28a33.19,33.19,0,0,0,12.06-13.56h45.62a75.24,75.24,0,0,1-15.54,28.1,77.82,77.82,0,0,1-26.77,19.83A83.89,83.89,0,0,1,1293.26,353.64Z"/><circle class="cls-2" cx="1146" cy="139.47" r="27.6"/></g></svg>