<svg width="61" height="61" viewBox="0 0 61 61" fill="none" xmlns="http://www.w3.org/2000/svg">
<path d="M24.2271 8.87965C27.2872 4.5478 33.7128 4.5478 36.7729 8.87965C38.3036 11.0464 40.844 12.2698 43.4924 12.1155C48.7871 11.8072 52.7934 16.8309 51.3146 21.9243C50.5749 24.4719 51.2024 27.2209 52.9741 29.1953C56.5164 33.1427 55.0866 39.4071 50.1824 41.4267C47.7294 42.4368 45.9714 44.6413 45.5324 47.2575C44.6548 52.4882 38.8656 55.2761 34.229 52.701C31.9098 51.413 29.0902 51.413 26.771 52.701C22.1344 55.2761 16.3452 52.4882 15.4676 47.2575C15.0286 44.6413 13.2706 42.4368 10.8176 41.4267C5.91339 39.4071 4.48357 33.1427 8.02586 29.1953C9.79763 27.2209 10.4251 24.4719 9.68541 21.9243C8.20664 16.8309 12.2129 11.8072 17.5076 12.1155C20.156 12.2698 22.6964 11.0464 24.2271 8.87965Z" fill="#E7B659"/>
<path d="M29.6601 39.8418V25.5253L26.2643 26.449V23.1347L31.453 20.8256H33.898V39.8418H29.6601Z" fill="white"/>
</svg>
