<svg width="45" height="45" viewBox="0 0 45 45" fill="none" xmlns="http://www.w3.org/2000/svg">
<path d="M17.8724 6.55056C20.1299 3.35494 24.8701 3.35494 27.1276 6.55056C28.2567 8.14895 30.1308 9.05146 32.0845 8.9377C35.9905 8.71026 38.9459 12.4162 37.855 16.1737C37.3094 18.0531 37.7722 20.081 39.0793 21.5375C41.6924 24.4495 40.6377 29.0708 37.0198 30.5606C35.2102 31.3058 33.9133 32.9321 33.5895 34.8621C32.9421 38.7208 28.6714 40.7774 25.2509 38.8778C23.54 37.9276 21.46 37.9276 19.7491 38.8778C16.3286 40.7774 12.0579 38.7208 11.4105 34.8621C11.0867 32.9321 9.78976 31.3058 7.98018 30.5606C4.36234 29.0708 3.30756 24.4495 5.92071 21.5375C7.22776 20.081 7.69062 18.0531 7.14498 16.1737C6.05408 12.4162 9.0095 8.71026 12.9155 8.9377C14.8692 9.05146 16.7433 8.14895 17.8724 6.55056Z" fill="#B6B7B2"/>
<path d="M17.6426 29.4736V27.2491C18.4576 26.5811 19.2592 25.9198 20.0475 25.2651C20.8491 24.6105 21.5639 23.9625 22.1918 23.3212C22.8331 22.6665 23.3408 22.0319 23.7149 21.4174C24.089 20.7894 24.276 20.1882 24.276 19.6137C24.276 19.2797 24.2092 18.9724 24.0756 18.6918C23.9554 18.3979 23.7616 18.1708 23.4944 18.0105C23.2406 17.8368 22.8999 17.7499 22.4724 17.7499C22.0582 17.7499 21.7041 17.8435 21.4102 18.0305C21.1163 18.2176 20.8958 18.4781 20.7489 18.8121C20.6019 19.1327 20.5284 19.5068 20.5284 19.9344H17.6226C17.6626 18.8655 17.9031 17.9771 18.344 17.269C18.7849 16.5609 19.3728 16.0398 20.1076 15.7058C20.8558 15.3718 21.6774 15.2048 22.5726 15.2048C23.6147 15.2048 24.4831 15.3985 25.1778 15.786C25.8726 16.1601 26.3936 16.6678 26.741 17.3091C27.1017 17.937 27.2821 18.6384 27.2821 19.4133C27.2821 20.0279 27.1752 20.6224 26.9614 21.1969C26.7477 21.758 26.4537 22.3058 26.0796 22.8402C25.7056 23.3613 25.278 23.869 24.7971 24.3633C24.3294 24.8443 23.8351 25.3119 23.3141 25.7661C22.793 26.207 22.2786 26.6279 21.7709 27.0287H27.5626V29.4736H17.6426Z" fill="white"/>
</svg>
