<svg width="45" height="45" viewBox="0 0 45 45" fill="none" xmlns="http://www.w3.org/2000/svg">
<path d="M17.8724 6.55056C20.1299 3.35494 24.8701 3.35494 27.1276 6.55056C28.2567 8.14895 30.1308 9.05146 32.0845 8.9377C35.9905 8.71026 38.9459 12.4162 37.855 16.1737C37.3094 18.0531 37.7722 20.081 39.0793 21.5375C41.6924 24.4495 40.6377 29.0708 37.0198 30.5606C35.2102 31.3058 33.9133 32.9321 33.5895 34.8621C32.9421 38.7208 28.6714 40.7774 25.2509 38.8778C23.54 37.9276 21.46 37.9276 19.7491 38.8778C16.3286 40.7774 12.0579 38.7208 11.4105 34.8621C11.0867 32.9321 9.78976 31.3058 7.98018 30.5606C4.36234 29.0708 3.30756 24.4495 5.92071 21.5375C7.22776 20.081 7.69062 18.0531 7.14498 16.1737C6.05408 12.4162 9.0095 8.71026 12.9155 8.9377C14.8692 9.05146 16.7433 8.14895 17.8724 6.55056Z" fill="#C86B58"/>
<path d="M22.9594 29.7141C22.0375 29.7141 21.1891 29.5471 20.4142 29.2131C19.6527 28.8791 19.0381 28.3714 18.5705 27.69C18.1162 26.9953 17.8758 26.1135 17.849 25.0447H20.775C20.7883 25.4589 20.8818 25.8329 21.0555 26.167C21.2292 26.4876 21.4764 26.7414 21.797 26.9285C22.1177 27.1155 22.5051 27.2091 22.9594 27.2091C23.3735 27.2091 23.7276 27.1289 24.0215 26.9686C24.3288 26.7949 24.5559 26.5744 24.7029 26.3072C24.8632 26.0267 24.9434 25.706 24.9434 25.3453C24.9434 24.9311 24.8432 24.5838 24.6428 24.3032C24.4424 24.0093 24.1551 23.7888 23.781 23.6419C23.4069 23.4815 22.9727 23.4014 22.4784 23.4014H21.4363V20.9564H22.4784C23.0529 20.9564 23.5539 20.8228 23.9814 20.5556C24.409 20.275 24.6227 19.8475 24.6227 19.273C24.6227 18.7921 24.4691 18.418 24.1618 18.1508C23.8545 17.8702 23.447 17.7299 22.9393 17.7299C22.3247 17.7299 21.8571 17.9103 21.5365 18.271C21.2158 18.6184 21.0355 19.0392 20.9954 19.5336H18.0895C18.1296 18.625 18.3567 17.8501 18.7709 17.2089C19.1851 16.5542 19.7462 16.0599 20.4543 15.7259C21.1758 15.3785 22.0041 15.2048 22.9393 15.2048C23.928 15.2048 24.7697 15.3785 25.4644 15.7259C26.1592 16.0732 26.6802 16.5408 27.0276 17.1287C27.3883 17.7032 27.5687 18.3311 27.5687 19.0125C27.5687 19.587 27.4618 20.088 27.248 20.5155C27.0343 20.9297 26.7537 21.2771 26.4063 21.5576C26.059 21.8248 25.6916 22.0186 25.3041 22.1388C25.8252 22.2457 26.2727 22.4528 26.6468 22.7601C27.0343 23.054 27.3349 23.4348 27.5486 23.9024C27.7624 24.3566 27.8693 24.8777 27.8693 25.4655C27.8693 26.2404 27.6756 26.9552 27.2881 27.6099C26.914 28.2512 26.3596 28.7655 25.6248 29.153C24.9033 29.5271 24.0148 29.7141 22.9594 29.7141Z" fill="white"/>
</svg>
