<svg width="64" height="64" viewBox="0 0 64 64" fill="none" xmlns="http://www.w3.org/2000/svg">
<rect width="64" height="64" rx="32" fill="white"/>
<path d="M16.8636 41.3085C16.2431 39.7179 13.7533 32.8349 17.0187 25.8764C20.2267 19.0312 26.8651 16.6645 30.6151 15.3345C39.0343 12.3468 46.5782 14.0537 49.8663 15.0289C50.3664 21.2821 49.3658 26.1903 48.4914 29.2385C47.5151 32.6405 46.5828 35.8904 43.7548 39.1698C42.9932 40.0535 39.555 43.883 33.5165 45.5869C28.5302 46.9944 24.3267 46.2306 22.3628 45.742L17.3207 52.006C16.6066 52.7558 15.5109 52.9218 14.7234 52.4647C14.0093 52.051 13.6287 51.1652 13.7714 50.2898C13.8227 49.9763 13.9387 49.6769 14.1122 49.4107C21.189 38.8414 26.3367 33.9746 26.3367 33.9746C28.7784 31.6678 30.6828 30.008 32.4497 28.4738C36.0378 25.3568 39.114 22.8706 41.3111 21.1399C37.7724 22.7489 34.3959 24.6931 31.2278 26.9458C24.4348 31.778 19.827 37.164 16.8636 41.3085Z" fill="#85D76D"/>
<path d="M16.7112 39.3221C16.0907 37.7321 13.6009 30.8491 16.8637 23.8906C20.0738 17.0454 26.7122 14.6787 30.4632 13.3482C38.8824 10.3604 46.4268 12.0674 49.7149 13.0426C50.2144 19.2958 49.2144 24.204 48.34 27.2517C47.3637 30.6541 46.4314 33.9041 43.6035 37.1834C42.8413 38.0671 39.4031 41.8962 33.3651 43.6005C28.3788 45.008 24.1754 44.2443 22.2114 43.7557C20.5309 45.844 18.8502 47.9322 17.1693 50.0202C16.4552 50.7695 15.3595 50.936 14.572 50.4789C13.8584 50.0652 13.4778 49.1794 13.6205 48.304C13.6718 47.9905 13.7877 47.6912 13.9608 47.4249C21.0366 36.8551 26.1842 31.9882 26.1842 31.9882C28.6239 29.6815 30.5278 28.0216 32.2957 26.488C35.8838 23.3704 38.9605 20.8843 41.1576 19.1541C37.6188 20.7629 34.2423 22.7071 31.0744 24.96C24.2839 29.7901 19.6741 35.1782 16.7112 39.3221Z" fill="#237700"/>
</svg>
