<svg width="603" height="603" viewBox="0 0 603 603" fill="none" xmlns="http://www.w3.org/2000/svg">
<path d="M301.046 575.447C455.378 575.447 580.488 450.336 580.488 296.005C580.488 141.673 455.378 16.5624 301.046 16.5624C146.714 16.5624 21.6035 141.673 21.6035 296.005C21.6035 450.336 146.714 575.447 301.046 575.447Z" fill="#8CF25E"/>
<path d="M301.154 499.26C414.997 499.26 507.284 406.973 507.284 293.13C507.284 179.288 414.997 87.0009 301.154 87.0009C187.312 87.0009 95.0249 179.288 95.0249 293.13C95.0249 406.973 187.312 499.26 301.154 499.26Z" fill="#68D946"/>
<path d="M216.871 344.598C213.362 335.622 199.312 296.76 217.732 257.489C235.854 218.849 273.324 205.49 294.514 197.993C342.038 181.133 384.622 190.757 403.182 196.268C405.996 231.568 400.368 259.274 395.424 276.479C389.912 295.683 384.65 314.03 368.687 332.538C364.385 337.527 344.969 359.143 310.899 368.763C290.343 374.512 268.644 374.81 247.938 369.627L219.476 405.003C215.456 409.232 209.253 410.173 204.815 407.592C200.795 405.248 198.641 400.255 199.445 395.315C199.733 393.542 200.387 391.848 201.366 390.342C241.285 330.673 270.345 303.2 270.345 303.2C284.118 290.18 294.867 280.809 304.841 272.15C325.098 254.554 342.464 240.521 354.866 230.744C299.634 255.862 252.027 295.139 216.871 344.59V344.598Z" fill="#51C430"/>
<path d="M216.007 333.387C212.497 324.41 198.452 285.549 216.871 246.277C234.989 207.637 272.464 194.278 293.629 186.781C341.153 169.917 383.741 179.545 402.302 185.057C405.116 220.356 399.488 248.062 394.539 265.268C389.028 284.471 383.765 302.818 367.802 321.327C363.501 326.315 344.084 347.931 310.019 357.551C289.463 363.301 267.763 363.599 247.057 358.415L218.596 393.791C214.576 398.02 208.373 398.961 203.935 396.38C199.915 394.036 197.756 389.043 198.56 384.103C198.843 382.315 199.497 380.605 200.482 379.086C240.424 319.449 269.481 291.977 269.481 291.977C283.253 278.956 294.003 269.585 303.981 260.926C324.233 243.331 341.6 229.297 354.001 219.52C334.023 228.609 314.962 239.591 297.078 252.315C265.748 274.659 238.351 302.057 216.007 333.387Z" fill="#86ED5B"/>
<path d="M110.981 292.483C110.981 187.095 196.414 101.662 301.802 101.662C407.19 101.662 492.623 187.095 492.623 292.483C492.623 292.7 492.623 292.913 492.623 293.13H510.311C510.195 177.6 416.505 83.9818 300.95 83.9818C185.395 83.9818 91.6967 177.6 91.5801 293.13H110.989C110.989 292.913 110.981 292.7 110.981 292.483Z" fill="#50C631"/>
<path d="M492.615 293.13C492.266 398.221 406.989 483.305 301.802 483.305C196.615 483.305 111.354 398.221 110.989 293.13H91.5801C91.5801 293.203 91.5801 293.275 91.5801 293.347C91.5801 408.975 185.314 502.713 300.946 502.713C416.577 502.713 510.307 408.975 510.307 293.347V293.13H492.615Z" fill="#A2FF73"/>
<path d="M554 297.154C554 437.493 440.234 551.255 299.9 551.255C159.566 551.255 45.7999 437.489 45.7999 297.154C45.7999 296.865 45.7999 296.579 45.7999 296.294H22.2588C22.4115 450.135 147.172 574.8 301.046 574.8C454.919 574.8 579.684 450.135 579.837 296.294H553.988C553.992 296.579 554 296.865 554 297.154Z" fill="#53BF38"/>
<path d="M45.8282 296.294C46.2744 156.354 159.851 43.0542 299.892 43.0542C439.933 43.0542 553.518 156.354 553.98 296.294H579.829C579.829 296.198 579.829 296.101 579.829 296.005C579.829 142.039 455.008 17.2136 301.034 17.2136C147.06 17.2136 22.2549 142.035 22.2549 296.005C22.2549 296.101 22.2549 296.198 22.2549 296.294H45.8282Z" fill="#80E65B"/>
</svg>
